<svg id="Capa_1" data-name="Capa 1" xmlns="http://www.w3.org/2000/svg" viewBox="0 0 31.45 30.52"><defs><style>.cls-1{fill:#243882;stroke:#020303;stroke-width:0.16px;}.cls-1,.cls-2,.cls-3,.cls-4,.cls-5,.cls-6{stroke-miterlimit:10;}.cls-2{fill:#36b479;stroke-width:0.15px;}.cls-2,.cls-6{stroke:#000;}.cls-3,.cls-4,.cls-5,.cls-6{fill:#fff;}.cls-3,.cls-4,.cls-5{stroke:#000201;}.cls-3{stroke-width:0.15px;}.cls-4{stroke-width:0.16px;}.cls-5{stroke-width:0.16px;}.cls-6{stroke-width:0.16px;}</style></defs><title>logo</title><path class="cls-1" d="M31.21,13.34A14.35,14.35,0,0,0,27.7,5.5,15.49,15.49,0,0,0,14.49.15,14.92,14.92,0,0,0,3.2,6.25a14.57,14.57,0,0,0-3,10.91,14.34,14.34,0,0,0,4,8.59,15.32,15.32,0,0,0,11.51,4.69c.93-.08,1.87-.1,2.79-.25a14.69,14.69,0,0,0,8-3.86A14.53,14.53,0,0,0,31.21,13.34ZM21,5.61h4c-.36,1-.68,1.84-1,2.72-.49,1.28-1,2.56-1.52,3.83a1.19,1.19,0,0,1-.42.61c-1.69.83-3.4,1.62-5.27,2.5C18,12,19.16,9,20.36,6A.8.8,0,0,1,21,5.61Zm.32,8.88c-.42,1-.82,2-1.25,3a1,1,0,0,1-.45.41c-1.44.71-2.89,1.4-4.34,2.09l-.2-.14c.39-1,.78-1.91,1.18-2.85a.66.66,0,0,1,.31-.33,49,49,0,0,1,4.72-2.16Zm-16-5.24L6.71,5.63H18.57c-.44,1.17-.85,2.31-1.31,3.43a.66.66,0,0,1-.53.3H5.56l-.24-.11Zm5.05,15.47c-1.38,0-2.76,0-4.25,0,.45-1.14.87-2.19,1.28-3.25,1.28-3.28,2.56-6.57,3.81-9.87a.91.91,0,0,1,1-.69h4.15c-.63,1.64-1.21,3.19-1.8,4.73-1.09,2.81-2.18,5.61-3.25,8.42a.86.86,0,0,1-.94.67ZM25,24.36a.69.69,0,0,1-.52.32H13.15c.47-1.23.89-2.39,1.36-3.53,0-.13.33-.24.51-.24H26.39c-.48,1.23-.9,2.34-1.36,3.44Z" transform="translate(0 0)"/><path class="cls-2" d="M21.23,14.54c-.4,1-.8,2-1.23,2.93a1,1,0,0,1-.44.41c-1.42.7-2.85,1.38-4.28,2.06l-.17-.14c.38-.94.76-1.88,1.15-2.81a.82.82,0,0,1,.31-.33A50,50,0,0,1,21.23,14.54Z" transform="translate(0 0)"/><path class="cls-3" d="M18.47,5.64C18,6.81,17.63,7.93,17.18,9a.69.69,0,0,1-.53.3h-11c-.05,0-.09,0-.23-.1L6.75,5.65Z" transform="translate(0 0)"/><path class="cls-4" d="M25,5.62c-.35,1-.67,1.84-1,2.72-.5,1.28-1,2.55-1.52,3.82a1.18,1.18,0,0,1-.42.61c-1.69.83-3.4,1.62-5.26,2.49,1.25-3.19,2.41-6.2,3.61-9.2a.79.79,0,0,1,.58-.42C22.24,5.6,23.54,5.62,25,5.62Z" transform="translate(0 0)"/><path class="cls-5" d="M16.31,10.94c-.62,1.64-1.2,3.18-1.8,4.72-1.08,2.79-2.17,5.58-3.23,8.38a.85.85,0,0,1-1,.67c-1.37-.05-2.74,0-4.23,0,.45-1.13.86-2.18,1.27-3.23,1.27-3.28,2.55-6.55,3.8-9.84a.9.9,0,0,1,1-.69C13.52,11,14.87,10.94,16.31,10.94Z" transform="translate(0 0)"/><path class="cls-6" d="M26.44,20.89c-.49,1.24-.91,2.36-1.38,3.47a.68.68,0,0,1-.52.32c-3.78,0-7.55,0-11.44,0,.48-1.24.9-2.41,1.37-3.55A.72.72,0,0,1,15,20.9Z" transform="translate(0 0)"/></svg>